<svg xmlns="http://www.w3.org/2000/svg" viewBox="0 0 40 40">
  <path fill="currentColor" fill-rule="nonzero"
    d="M20.04 34c-7.469.035-13.645-5.832-14.022-13.322C5.641 13.19 11.196 6.726 18.63 6.005a.979.979 0 0 1 .953 1.443 9.672 9.672 0 0 0-1.167 4.69c-.168 5.042 3.754 9.271 8.774 9.463a8.28 8.28 0 0 0 5.227-1.874.972.972 0 0 1 1.049-.11c.34.173.55.53.534.912-.274 7.535-6.45 13.494-13.96 13.47ZM17.1 8.257c-5.762 1.459-9.6 6.925-9.03 12.864.568 5.94 5.372 10.572 11.305 10.902 5.934.33 11.218-3.741 12.437-9.582a10.068 10.068 0 0 1-4.623 1.118c-6.097-.193-10.89-5.298-10.724-11.42-.006-1.32.21-2.633.636-3.882Z" />
</svg>