<?xml version="1.0" standalone="no"?><!DOCTYPE svg PUBLIC "-//W3C//DTD SVG 1.1//EN" "http://www.w3.org/Graphics/SVG/1.1/DTD/svg11.dtd"><svg t="1696847373411" class="icon" viewBox="0 0 1024 1024" version="1.1" xmlns="http://www.w3.org/2000/svg" p-id="5975" xmlns:xlink="http://www.w3.org/1999/xlink" width="200" height="200"><path d="M917.297816 910.436548 785.408997 910.436548c-35.730783 0-64.798818-29.069059-64.798818-64.799842L720.610178 637.009132c0-35.728736 29.068036-64.794725 64.798818-64.794725l20.48966 0c0.704035 0 1.408069 0.039909 2.108011 0.118704 10.078543 1.089821 39.863916 0.74599 55.762001-13.728676 7.589862-6.91141 19.34765-6.362918 26.261107 1.230014 6.912433 7.590885 6.361895 19.348674-1.230014 26.261107-29.435403 26.802436-75.577303 24.036439-83.804684 23.297612l-19.587104 0c-15.229866 0-27.620058 12.388145-27.620058 27.615964l0 208.627575c0 15.230889 12.390191 27.621081 27.620058 27.621081l120.810506 0L906.21848 449.707258c0-89.938382-35.024701-174.49315-98.619088-238.08856-63.59541-63.59541-148.150178-98.619088-238.08856-98.619088L447.570595 112.99961c-89.936335 0-174.49008 35.023678-238.084467 98.619088-63.59541 63.59541-98.619088 148.150178-98.619088 238.08856l0 122.507148 114.261347 0c35.728736 0 64.795748 29.065989 64.795748 64.794725l0 208.627575c0 35.730783-29.067013 64.799842-64.795748 64.799842L93.236498 910.436548c-0.425695 0-0.851391-0.014326-1.27504-0.042979l-0.959861-0.065492c-9.749038-0.670266-17.314341-8.773827-17.314341-18.546402L73.687256 449.707258c0-50.466392 9.888208-99.432617 29.389354-145.539724 18.831904-44.524053 45.787836-84.507696 80.118735-118.838595S257.508865 124.042107 302.032918 105.20918c46.106084-19.50217 95.072309-29.389354 145.537677-29.389354l121.94126 0c50.466392 0 99.432617 9.888208 145.539724 29.389354 44.525076 18.831904 84.507696 45.787836 118.838595 80.118735 34.331923 34.3309 61.287855 74.314543 80.119759 118.838595 19.50217 46.107107 29.389354 95.073332 29.389354 145.539724l0 442.074418c0 10.203386-8.223289 18.499329-18.426675 18.58938l-7.511067 0.065492C917.40731 910.436548 917.352051 910.436548 917.297816 910.436548zM110.86704 873.257787l114.261347 0c15.22782 0 27.615964-12.390191 27.615964-27.621081L252.744351 637.009132c0-15.22782-12.388145-27.615964-27.615964-27.615964L110.86704 609.393167 110.86704 873.257787z" fill="#FF9000" p-id="5976"></path></svg>