<svg xmlns="http://www.w3.org/2000/svg" viewBox="0 0 40 40">
  <path fill="currentColor" fill-rule="nonzero"
    d="M20 30.116c.578 0 1.047.469 1.047 1.047v2.79a1.047 1.047 0 1 1-2.094 0v-2.79c0-.578.469-1.047 1.047-1.047Zm8.634-2.963 1.97 1.974a1.047 1.047 0 0 1-.615 1.779l-.124.007-.136-.009a1.045 1.045 0 0 1-.602-.297l-1.973-1.974a1.047 1.047 0 0 1 1.48-1.48Zm-15.8.013c.403.404.409 1.057.012 1.467l-1.973 1.972a1.047 1.047 0 1 1-1.48-1.478l1.974-1.974a1.047 1.047 0 0 1 1.467.013ZM20 11.976A8.023 8.023 0 0 1 28.023 20 8.033 8.033 0 0 1 20 28.023a8.023 8.023 0 0 1 0-16.046Zm0 2.094A5.93 5.93 0 1 0 25.93 20 5.937 5.937 0 0 0 20 14.07Zm13.953 4.883a1.047 1.047 0 1 1 0 2.094h-2.79a1.047 1.047 0 1 1 0-2.094h2.79Zm-25.116 0a1.047 1.047 0 1 1 0 2.094h-2.79a1.047 1.047 0 1 1 0-2.094h2.79Zm21.727-9.517c.393.392.41 1.023.04 1.437l-1.97 1.974a1.045 1.045 0 0 1-1.706-.34c-.162-.39-.073-.84.226-1.14l1.973-1.972a1.047 1.047 0 0 1 1.437.04Zm-19.691-.04 1.973 1.971a1.047 1.047 0 0 1-1.479 1.48l-1.972-1.974a1.047 1.047 0 0 1 1.478-1.478ZM20 5c.578 0 1.047.469 1.047 1.047v2.79a1.047 1.047 0 1 1-2.094 0v-2.79C18.953 5.469 19.422 5 20 5Z" />
</svg>